<svg width="32" height="32" viewBox="0 0 32 32" fill="none" xmlns="http://www.w3.org/2000/svg">
<path fill-rule="evenodd" clip-rule="evenodd" d="M10.7722 9.6574C10.7731 9.65479 10.774 9.65218 10.774 9.64957C10.9856 8.68697 11.8588 8 12.8695 8H19.1312C20.142 8 21.0143 8.68695 21.2268 9.64957C21.2268 9.65218 21.2277 9.65479 21.2286 9.6574L21.3545 10.233C21.425 10.5539 21.7161 10.7826 22.0536 10.7826H23.8571C24.4259 10.7826 24.9714 11.0026 25.3723 11.3939C25.775 11.7852 26 12.3157 26 12.8696V21.913C26 22.467 25.775 22.9974 25.3723 23.3887C24.9714 23.78 24.4259 24 23.8571 24H8.14286C7.57499 24 7.02946 23.78 6.62857 23.3887C6.2259 22.9974 6 22.467 6 21.913V12.8696C6 12.3157 6.22589 11.7852 6.62857 11.3939C7.02946 11.0026 7.57499 10.7826 8.14286 10.7826H9.94731C10.2848 10.7826 10.575 10.5539 10.6464 10.2322L10.7722 9.6574ZM15.9999 12.174C13.4383 12.174 11.3571 14.2001 11.3571 16.6956C11.3571 19.1913 13.4384 21.2172 15.9999 21.2172C18.5624 21.2172 20.6426 19.1911 20.6426 16.6956C20.6426 14.1999 18.5622 12.174 15.9999 12.174ZM15.9999 13.5653C17.7749 13.5653 19.214 14.9679 19.214 16.6956C19.214 18.4234 17.7747 19.8259 15.9999 19.8259C14.2258 19.8259 12.7857 18.4233 12.7857 16.6956C12.7857 14.9678 14.2259 13.5653 15.9999 13.5653Z" fill="#006C5D"/>
</svg>
