<svg width="28" height="28" viewBox="0 0 28 28" fill="none" xmlns="http://www.w3.org/2000/svg">
<path d="M14 4C19.5228 4 24 8.47715 24 14C24 19.5228 19.5228 24 14 24C8.47715 24 4 19.5228 4 14C4 8.47715 8.47715 4 14 4ZM18.8477 10.3369C18.5471 10.1207 18.1274 10.1888 17.9111 10.4893L12.998 16.4541L9.90918 14C9.67787 13.7109 9.25594 13.6642 8.9668 13.8955C8.67768 14.1268 8.63101 14.5488 8.8623 14.8379L12.5029 17.9814C12.6339 18.145 12.8344 18.2378 13.0439 18.2324C13.2533 18.2269 13.4479 18.124 13.5703 17.9541L19 11.2725C19.2159 10.972 19.1479 10.5532 18.8477 10.3369Z" fill="#34C759"/>
</svg>
