<svg width="32" height="32" viewBox="0 0 32 32" fill="none" xmlns="http://www.w3.org/2000/svg">
<path fill-rule="evenodd" clip-rule="evenodd" d="M26 8.72727C26 7.22105 24.779 6 23.2727 6H8.72727C7.22105 6 6 7.22105 6 8.72727V23.2727C6 24.779 7.22105 26 8.72727 26H23.2727C24.779 26 26 24.779 26 23.2727V8.72727ZM24.1818 8.72727C24.1818 8.2252 23.7748 7.81818 23.2727 7.81818H8.72727C8.2252 7.81818 7.81818 8.2252 7.81818 8.72727V23.2727C7.81818 23.7748 8.2252 24.1818 8.72727 24.1818H23.2727C23.7748 24.1818 24.1818 23.7748 24.1818 23.2727V8.72727Z" fill="#006C5D"/>
<path d="M9.46062 21.0192L13.3838 13.8268C13.7283 13.1951 14.6354 13.1951 14.9799 13.8268L17.8605 19.1079L18.8471 17.3813C19.1961 16.7706 20.0767 16.7706 20.4257 17.3813L22.4956 21.0036C22.8418 21.6096 22.4042 22.3637 21.7062 22.3637H10.2587C9.56864 22.3637 9.13018 21.625 9.46062 21.0192Z" fill="#006C5D"/>
<path d="M21.4545 12.3636C21.4545 13.3678 20.6405 14.1818 19.6364 14.1818C18.6322 14.1818 17.8182 13.3678 17.8182 12.3636C17.8182 11.3595 18.6322 10.5454 19.6364 10.5454C20.6405 10.5454 21.4545 11.3595 21.4545 12.3636Z" fill="#006C5D"/>
</svg>
