<svg width="30" height="30" viewBox="0 0 30 30" fill="none" xmlns="http://www.w3.org/2000/svg">
<path d="M15.0167 13.8895C13.8428 12.4123 11.5592 9.18712 11.5592 7.48404C11.5592 5.29672 13.1102 3.51721 15.0166 3.51721C16.923 3.51721 18.474 5.29672 18.474 7.48404C18.474 9.18848 16.1905 12.4128 15.0167 13.8895Z" fill="#1C1C1E"/>
<path opacity="0.3" d="M13.003 14.7753C13.4668 15.3927 13.8917 15.927 14.2257 16.3397H13.671C13.2587 16.3397 12.8264 16.3545 12.4103 16.3954C11.9942 16.4363 11.5937 16.5035 11.2452 16.6063C10.897 16.7091 10.6 16.8486 10.3907 17.0341C10.1816 17.2196 10.0596 17.452 10.0606 17.7411C10.0614 17.9288 10.1078 18.12 10.2091 18.3007C10.3103 18.4813 10.4667 18.6517 10.6866 18.7987C10.9068 18.9458 11.1916 19.0693 11.5489 19.1561C11.906 19.2429 12.3363 19.2928 12.8487 19.2928H17.5265C18.1644 19.2929 18.7143 19.3849 19.1798 19.5448C19.6453 19.7048 20.0271 19.9333 20.3282 20.2069C20.6291 20.4803 20.85 20.799 20.9952 21.1395C21.1403 21.4799 21.2099 21.8426 21.2081 22.204C21.2055 22.7147 21.109 23.1629 20.92 23.5468C20.7311 23.9301 20.449 24.2504 20.0753 24.5067C19.7014 24.763 19.2344 24.9553 18.6769 25.0839C18.1196 25.2123 17.4705 25.2772 16.7306 25.2772H9.73643C9.70147 25.3939 9.66059 25.5075 9.61338 25.6171C9.42692 26.0463 9.17568 26.4182 8.87705 26.7098C8.54544 27.0367 8.17595 27.287 7.7833 27.4491C7.34884 27.6302 6.8962 27.7207 6.44151 27.7186C5.98653 27.7207 5.53371 27.6302 5.09873 27.4501C4.70392 27.2875 4.33179 27.0381 3.99717 26.7118C3.69509 26.4204 3.43961 26.0485 3.24815 25.619C3.06814 25.2111 2.97059 24.7461 2.96494 24.2714C2.9622 23.7991 3.05257 23.334 3.22569 22.9237C3.41066 22.4909 3.66085 22.1152 3.96006 21.8212C4.29171 21.4923 4.66145 21.2402 5.05479 21.077C5.49213 20.8935 5.94838 20.8022 6.40635 20.8046C6.86284 20.8034 7.31694 20.8948 7.75303 21.077C8.14912 21.241 8.52248 21.4931 8.85752 21.8221C9.15971 22.1164 9.41382 22.4918 9.60361 22.9247C9.71291 23.1729 9.7904 23.4426 9.83506 23.7225H16.7325C17.3722 23.7225 17.8529 23.6703 18.213 23.5809C18.5728 23.4915 18.8134 23.365 18.9737 23.2177C19.1339 23.0703 19.2144 22.9013 19.255 22.7274C19.2955 22.5534 19.2964 22.3732 19.297 22.204C19.2974 22.0786 19.2837 21.9315 19.2384 21.7821C19.1931 21.6327 19.1163 21.4802 18.9913 21.3436C18.8662 21.2069 18.6921 21.0858 18.4532 20.9989C18.2143 20.9121 17.91 20.8593 17.5235 20.8593H12.8517C12.3927 20.8592 11.9805 20.8271 11.6114 20.7723C11.2424 20.7176 10.9161 20.6396 10.629 20.5487C10.3418 20.4577 10.0931 20.3536 9.87998 20.245C9.66697 20.1364 9.48879 20.0235 9.3419 19.9159C9.1499 19.7752 8.97913 19.6215 8.83115 19.4569C8.68314 19.2923 8.55771 19.1166 8.45615 18.9325C8.35465 18.7484 8.2773 18.5555 8.22471 18.3563C8.17207 18.1571 8.14383 17.951 8.14268 17.7411C8.14146 17.5175 8.17085 17.3025 8.22861 17.0985C8.28643 16.8945 8.37319 16.7003 8.48838 16.5184C8.60355 16.3366 8.74707 16.1659 8.91807 16.0087C9.08913 15.8515 9.28847 15.707 9.51377 15.577C9.74761 15.4422 10.011 15.3231 10.3019 15.2216C10.5929 15.12 10.9129 15.0347 11.2599 14.9667C11.6069 14.8987 11.9823 14.8475 12.3839 14.8134C12.5835 14.7964 12.7902 14.7838 13.003 14.7753ZM23.5675 12.161C24.0242 12.1589 24.4783 12.2507 24.9142 12.4335C25.308 12.597 25.6785 12.8486 26.0099 13.1776C26.3086 13.4719 26.5581 13.8467 26.7423 14.2782C26.9156 14.6886 27.0055 15.1533 27.003 15.6249C26.9974 16.0984 26.9003 16.5618 26.7208 16.9696C26.5297 17.3995 26.2746 17.7728 25.9718 18.0653C25.6378 18.3909 25.2659 18.64 24.8712 18.8026C24.4351 18.9847 23.9803 19.0765 23.5235 19.0751C23.0689 19.0768 22.6167 18.9859 22.1827 18.8046C21.7901 18.6423 21.4201 18.3925 21.089 18.0663C20.7897 17.7739 20.5395 17.401 20.3536 16.9716C20.2682 16.7723 20.2028 16.5596 20.1583 16.3397H15.714C16.0503 15.9242 16.4789 15.3852 16.9464 14.7626H20.1993C20.2428 14.5954 20.2994 14.4337 20.3673 14.2802C20.5565 13.8478 20.8101 13.4725 21.1124 13.1776C21.4475 12.8489 21.8211 12.5972 22.2179 12.4335C22.6547 12.251 23.11 12.1593 23.5675 12.161Z" fill="#1C1C1E"/>
</svg>
