<svg width="28" height="28" viewBox="0 0 28 28" fill="none" xmlns="http://www.w3.org/2000/svg">
<path d="M13.6189 24.5086C13.9904 24.5189 14.3598 24.4488 14.7017 24.303C15.0436 24.1573 15.3499 23.9393 15.5997 23.6641C15.8495 23.3889 16.0368 23.063 16.1489 22.7086C16.261 22.3543 16.2952 21.9799 16.2491 21.6111H10.9779C10.9316 21.9808 10.966 22.3562 11.0787 22.7113C11.1915 23.0665 11.3798 23.393 11.6308 23.6684C11.8818 23.9437 12.1895 24.1615 12.5327 24.3065C12.8759 24.4516 13.2465 24.5205 13.6189 24.5086Z" fill="black"/>
<path d="M22.1526 18.8344C21.3112 17.7243 19.6541 17.0701 19.6541 12.1044C19.6541 7.00285 17.4012 4.95357 15.3017 4.46092C15.1049 4.41207 14.9624 4.34557 14.9624 4.13792V3.97914C14.9624 3.62532 14.8219 3.28599 14.5717 3.03581C14.3215 2.78562 13.9822 2.64507 13.6284 2.64507C13.2745 2.64507 12.9352 2.78562 12.685 3.03581C12.4348 3.28599 12.2943 3.62532 12.2943 3.97914V4.13792C12.2943 4.34014 12.1586 4.40935 11.955 4.46092C9.85008 4.95899 7.60265 7.00285 7.60265 12.1044C7.60265 17.0742 5.94558 17.7189 5.10415 18.8344C4.98271 18.9958 4.9087 19.1879 4.89044 19.389C4.87217 19.5902 4.91038 19.7924 5.00076 19.9731C5.09114 20.1537 5.23012 20.3055 5.40206 20.4115C5.57401 20.5175 5.7721 20.5734 5.97408 20.5729H21.2894C21.4908 20.5721 21.688 20.5153 21.859 20.4088C22.03 20.3023 22.1679 20.1504 22.2575 19.97C22.3471 19.7896 22.3847 19.5879 22.3661 19.3873C22.3476 19.1868 22.2737 18.9954 22.1526 18.8344Z" fill="black"/>
<path d="M13.5701 5.42856C14.3196 5.42856 14.9272 4.82094 14.9272 4.07141C14.9272 3.32189 14.3196 2.71427 13.5701 2.71427C12.8205 2.71427 12.2129 3.32189 12.2129 4.07141C12.2129 4.82094 12.8205 5.42856 13.5701 5.42856Z" fill="black"/>
</svg>
