<svg width="13" height="13" viewBox="0 0 13 13" fill="none" xmlns="http://www.w3.org/2000/svg">
<path d="M11.1267 0.299469C11.526 -0.0998271 12.1737 -0.0998271 12.573 0.299469C12.9719 0.698722 12.972 1.34558 12.573 1.74478L7.88159 6.43619L12.573 11.1266C12.9723 11.5259 12.9723 12.1736 12.573 12.5729C12.1737 12.9722 11.526 12.9722 11.1267 12.5729L6.43628 7.8815L1.74487 12.5729C1.34567 12.9719 0.698813 12.9718 0.299561 12.5729C-0.0997356 12.1736 -0.0997356 11.5259 0.299561 11.1266L4.98999 6.43619L0.299561 1.74478C-0.0997356 1.34549 -0.0997356 0.698765 0.299561 0.299469C0.698857 -0.0998271 1.34558 -0.0998271 1.74487 0.299469L6.43628 4.9899L11.1267 0.299469Z" fill="white"/>
</svg>
