<svg width="24" height="24" viewBox="0 0 24 24" fill="none" xmlns="http://www.w3.org/2000/svg">
<path d="M12.0922 5.169C10.723 5.169 9.38444 5.57504 8.24592 6.33576C7.10741 7.09649 6.22005 8.17774 5.69605 9.44279C5.17206 10.7078 5.03495 12.0999 5.30209 13.4428C5.56922 14.7858 6.22859 16.0194 7.19681 16.9876C8.16503 17.9558 9.39863 18.6152 10.7416 18.8823C12.0846 19.1495 13.4766 19.0124 14.7416 18.4884C16.0067 17.9644 17.0879 17.077 17.8486 15.9385C18.6094 14.8 19.0154 13.4614 19.0154 12.0922C19.0134 10.2567 18.2833 8.49689 16.9854 7.19898C15.6875 5.90107 13.9278 5.17101 12.0922 5.169ZM12.0922 3.78436C13.7354 3.78436 15.3416 4.27161 16.7078 5.18448C18.074 6.09736 19.1389 7.39486 19.7677 8.91291C20.3965 10.431 20.561 12.1014 20.2404 13.7129C19.9199 15.3245 19.1286 16.8048 17.9667 17.9667C16.8049 19.1286 15.3246 19.9198 13.713 20.2404C12.1015 20.5609 10.431 20.3964 8.91297 19.7676C7.39492 19.1388 6.09742 18.074 5.18454 16.7077C4.27167 15.3415 3.78442 13.7353 3.78442 12.0922C3.78442 9.88881 4.65971 7.77568 6.21773 6.21766C7.77574 4.65965 9.88887 3.78436 12.0922 3.78436Z" fill="white" stroke="white" stroke-width="0.5"/>
<path d="M16.1898 12.9717H11.3997V7.48239C11.3997 7.29877 11.4727 7.12256 11.6025 6.99273C11.7323 6.86289 11.9084 6.79007 12.092 6.79007C12.2756 6.79007 12.4516 6.86289 12.5815 6.99273C12.7113 7.12256 12.7843 7.29877 12.7843 7.48239V11.5871H16.1898C16.3734 11.5871 16.5496 11.6601 16.6794 11.7899C16.8093 11.9198 16.8821 12.0958 16.8821 12.2794C16.8821 12.463 16.8093 12.6391 16.6794 12.7689C16.5496 12.8987 16.3734 12.9717 16.1898 12.9717Z" fill="white" stroke="white" stroke-width="0.5"/>
</svg>
